<?xml version="1.0" encoding="UTF-8"?>
<svg id="Layer_1" data-name="Layer 1" xmlns="http://www.w3.org/2000/svg" viewBox="0 0 254.63736 154.15385">
  <defs>
    <style>
      .cls-1 {
        fill: #fc0;
      }

      .cls-2 {
        stroke: #000;
      }

      .cls-2, .cls-3, .cls-4 {
        fill: none;
        stroke-miterlimit: 10;
      }

      .cls-3 {
        stroke: #fc0;
      }

      .cls-4 {
        stroke: #bcbcbc;
        stroke-width: .75px;
      }
    </style>
  </defs>
  <path class="cls-3" d="M213.05851,113.54838c-2.90155.41129-9.09186,1.72708-14.43213,6.71707-10.89789,10.18311-7.84021,25.93478-7.61542,27"/>
  <path class="cls-4" d="M70.50587,38.24998c2.90703,3.11543,7.35355,6.76773,13.49411,8.53197,12.83498,3.68762,27.86728-2.3686,38.4352-15.167"/>
  <line class="cls-2" x1="4.28572" y1="147.26545" x2="119.47252" y2="147.26545"/>
  <line class="cls-2" x1="91.51649" y1="3.66106" x2="250.35164" y2="147.26545"/>
  <line class="cls-2" x1="250.35164" y1="147.26545" x2="137.40659" y2="147.26545"/>
  <path class="cls-2" d="M91.51649,3.66106c-12.26926,20.19836-24.53851,40.39671-36.80777,60.59508"/>
  <line class="cls-2" x1="4.28572" y1="147.26545" x2="43.20642" y2="83.19192"/>
  <path d="M44.85525,75.0402c0-1.61182.54004-3.11719,1.62109-4.51562,1.08008-1.39844,2.23633-2.09766,3.46484-2.09766.84668,0,1.46094.43701,1.84375,1.31104.11621-.57812.41211-.86719.89062-.86719.39648,0,.5957.19141.5957.57471,0,.10156-.0293.25781-.08594.46826l-1.50586,6.03223c-.10156.41309-.15234.79346-.15234,1.14111,0,.60156.1875.90234.56348.90234h.01074c.54883,0,1.04297-.88037,1.48438-2.64062.05664-.23926.10938-.38379.15625-.43457s.13574-.07617.26562-.07617c.22363,0,.33594.07227.33594.21631,0,.0293-.02734.15918-.08203.39014-.05371.23096-.13477.52344-.24316.87695-.1084.354-.22363.65723-.34668.90967-.39648.83057-.93457,1.24561-1.61328,1.24561-.42578,0-.81152-.12939-1.1543-.38721-.34375-.2583-.57422-.646-.68945-1.1626-.84668,1.02637-1.73633,1.54248-2.66895,1.5498-.81738,0-1.4707-.32959-1.95801-.98877-.48926-.65918-.73242-1.4751-.73242-2.44775ZM46.36014,76.01627c0,.49121.08984.94336.27051,1.35498.18066.41211.49805.61816.95312.61816.54883,0,1.12305-.30811,1.72168-.92432.59961-.61621.9502-1.146,1.05078-1.58838l1.03516-4.19189c.04297-.12988.06543-.22754.06543-.29248,0-.51953-.13965-.99561-.41699-1.42871-.27832-.43311-.64746-.64941-1.10938-.64941-.44043,0-.89258.23633-1.3584.70996-.46484.47363-.83789,1.05713-1.11914,1.75098-.22363.52051-.46191,1.29395-.71484,2.3208-.25195,1.02637-.37793,1.7998-.37793,2.32031Z"/>
  <path d="M125.24979,148.79264c0-.44824.0957-1.05225.28809-1.81201l1.76074-7.05615c.06152-.22461.0918-.38574.0918-.48242,0-.22461-.22949-.34033-.68848-.34619-.45996-.00635-.68945-.10205-.68945-.28711,0-.06445.01465-.11523.04199-.15381.02832-.03809.05469-.07178.0791-.10059.02539-.02881.0625-.05273.1123-.07178.04883-.01953.08691-.02881.11133-.02881s.06641-.00342.12598-.00928c.05859-.00635.09473-.00928.10645-.00928.16797-.0127.42188-.03418.76367-.06543.34082-.03076.62402-.05566.84668-.07422.22363-.01904.34766-.02832.37305-.02832.2041,0,.30664.0874.30664.26123,0,.07471-.03223.22119-.0957.43848l-1.28125,5.13428c.70703-.68701,1.37402-1.03027,2.00098-1.03027h.01855c.68359,0,1.23926.2793,1.66699.83838s.6416,1.27051.6416,2.13379c0,1.396-.45898,2.68896-1.37695,3.87988-.91699,1.19092-1.91406,1.78613-2.98926,1.78613-.65723,0-1.19141-.27051-1.60059-.8125-.41016-.5415-.61426-1.24316-.61426-2.104ZM126.33865,149.46256c0,.47266.08984.89209.26953,1.25928.18066.3667.47168.5498.875.5498.55859,0,1.09863-.37256,1.62012-1.11816.40918-.58398.75098-1.42725,1.02441-2.53027.27246-1.10303.40918-1.91553.40918-2.4375,0-.53418-.09277-.94727-.2793-1.23926s-.4375-.43799-.75391-.43799-.66406.13623-1.04395.40918c-.37891.27295-.72559.63916-1.04004,1.09814-.07422.11133-.1377.22168-.18945.33008-.05273.10889-.08887.20215-.1084.28027-.01855.07812-.06445.26025-.13574.5459s-.13379.53418-.18555.74463c-.30762,1.1875-.46191,2.03613-.46191,2.5459Z"/>
  <path class="cls-1" d="M214.03885,131.91764c.44824-1.04688,1.10254-2.09375,1.45801-2.57959l1.55176-.0376.01855.28027c-.13086.1499-.41113.48633-.54199.67334-1.4209,1.98096-2.33691,3.2334-2.33691,3.30811,0,1.36475-.05566,3.36475.99121,3.36475.56055,0,.91504-.33643,1.27051-.729l.29883.29932c-.28027.46729-.99023,1.83154-2.50488,1.83154-.87793,0-1.19629-.67285-1.19629-1.58887,0-.44873.09375-.97168.15039-1.58887h-.15039c-1.10254,1.77588-2.35449,3.23389-3.71973,3.23389-1.53223,0-2.14941-1.30859-2.14941-3.45801,0-3.43945,1.83203-5.75732,4.41211-5.75732,1.8125,0,2.16797,1.70117,2.33594,2.74805h.1123ZM213.27225,133.05778c.01855-.13086.03711-.35547.03711-.6543,0-1.15918-.61621-1.68213-1.8125-1.68213-2.01855,0-3.45801,1.271-3.45801,3.77539,0,1.62646.84082,2.24316,1.70117,2.24316,1.8877,0,3.38281-2.39258,3.53223-3.68213Z"/>
  <path d="M88.82693,38.58024c0-.17383.37012-1.64014,1.11133-4.39746l1.5127-5.5752c.59277-2.17822,1.07812-3.74854,1.45605-4.7124.37695-.96338.89453-1.7959,1.55273-2.49854.80664-.84424,1.66406-1.26611,2.57422-1.26611.69043,0,1.27539.21338,1.75391.63965.47949.42676.71875,1.00244.71875,1.72754,0,.7041-.2334,1.38232-.70117,2.03516-.4668.65283-1.1543,1.17969-2.06348,1.58008.99902.51562,1.49707,1.43848,1.49316,2.76855-.00293,1.33057-.49316,2.56787-1.46973,3.71143-.97754,1.14355-2.09473,1.71533-3.35254,1.71533-.74609,0-1.47656-.16113-2.19043-.4834-.80566,3.125-1.2334,4.73584-1.28418,4.83252-.15039.23828-.36719.35742-.64941.35742-.30762,0-.46191-.14453-.46191-.43457ZM91.59842,32.5153c0,.3042.19141.61621.57422.93604.38281.32031.83203.47998,1.34668.47998.54004,0,1.03418-.21094,1.48145-.63281.44629-.42188.7959-.94727,1.04688-1.5752.25098-.62842.44531-1.24512.58398-1.85107.1377-.60547.20703-1.14014.20703-1.604,0-.71533-.13477-1.21143-.40527-1.48877-.27051-.27686-.58203-.41553-.93555-.41553-.17383,0-.48438.04346-.93164.13086-.44727.08691-.74512.13037-.89258.13037-.29004,0-.43457-.12793-.43457-.3833,0-.15967.06543-.31104.19824-.45459.13184-.14404.29688-.21582.49707-.21582.07715,0,.3457.03857.80566.11621.45996.07715.77051.11572.93164.11572.63086,0,1.22559-.36035,1.78613-1.08105s.84082-1.50098.84082-2.34033c0-.49951-.12109-.91748-.3623-1.25391-.24219-.33643-.60156-.50488-1.07812-.50488-.87598,0-1.68066.52783-2.41406,1.58301-.30469.43799-.55566.97217-.75293,1.60352s-.35352,1.25146-.46875,1.85986-.33594,1.55908-.66211,2.85205-.63379,2.51123-.92188,3.6543c-.02637.2002-.04004.31348-.04004.33936Z"/>
</svg>