<?xml version="1.0" encoding="UTF-8"?>
<svg id="Layer_1" data-name="Layer 1" xmlns="http://www.w3.org/2000/svg" viewBox="0 0 254.63736 154.15385">
  <defs>
    <style>
      .cls-1 {
        stroke: #000;
      }

      .cls-1, .cls-2, .cls-3 {
        fill: none;
        stroke-miterlimit: 10;
      }

      .cls-2 {
        stroke: #0974cc;
      }

      .cls-3 {
        stroke: #bcbcbc;
        stroke-width: .75px;
      }

      .cls-4 {
        fill: #0974cc;
      }
    </style>
  </defs>
  <path class="cls-2" d="M213.05851,113.54826c-2.90155.41129-9.09186,1.72708-14.43213,6.71707-10.89789,10.18311-7.84021,25.93478-7.61542,27"/>
  <path class="cls-3" d="M70.50587,38.24986c2.90703,3.11543,7.35355,6.76773,13.49411,8.53197,12.83498,3.68762,27.86728-2.3686,38.4352-15.167"/>
  <line class="cls-1" x1="4.28572" y1="147.26533" x2="119.47252" y2="147.26533"/>
  <line class="cls-1" x1="91.51649" y1="3.66095" x2="250.35164" y2="147.26533"/>
  <line class="cls-1" x1="250.35164" y1="147.26533" x2="137.40659" y2="147.26533"/>
  <path class="cls-1" d="M91.51649,3.66095c-12.26926,20.19836-24.53851,40.39671-36.80777,60.59508"/>
  <line class="cls-1" x1="4.28572" y1="147.26533" x2="43.20642" y2="83.1918"/>
  <path d="M44.85463,75.0402c0-1.61182.54102-3.11719,1.62207-4.51562,1.08008-1.39844,2.23535-2.09766,3.46484-2.09766.84668,0,1.46094.43701,1.84375,1.31104.11621-.57812.41211-.86719.88965-.86719.39746,0,.59668.19141.59668.57471,0,.10156-.0293.25781-.08691.46826l-1.50488,6.03223c-.10156.41309-.15234.79346-.15234,1.14111,0,.60156.1875.90234.56348.90234h.01074c.54883,0,1.04297-.88037,1.4834-2.64062.05762-.23926.11035-.38379.15723-.43457s.13574-.07617.26562-.07617c.22363,0,.33594.07227.33594.21631,0,.0293-.02734.15918-.08203.39014-.05371.23096-.13477.52344-.24316.87695-.1084.354-.22363.65723-.34668.90967-.39746.83057-.93457,1.24561-1.61328,1.24561-.42676,0-.81152-.12939-1.15527-.38721-.34375-.2583-.57324-.646-.68848-1.1626-.84668,1.02637-1.73633,1.54248-2.66895,1.5498-.81836,0-1.4707-.32959-1.95898-.98877s-.73242-1.4751-.73242-2.44775ZM46.36049,76.01627c0,.49121.08984.94336.27051,1.35498.18066.41211.49805.61816.95312.61816.54785,0,1.12207-.30811,1.72168-.92432s.94922-1.146,1.05078-1.58838l1.03516-4.19189c.04297-.12988.06445-.22754.06445-.29248,0-.51953-.13867-.99561-.41602-1.42871-.27832-.43311-.64746-.64941-1.10938-.64941-.44043,0-.89258.23633-1.3584.70996-.46484.47363-.83789,1.05713-1.11914,1.75098-.22363.52051-.46191,1.29395-.71484,2.3208-.25195,1.02637-.37793,1.7998-.37793,2.32031Z"/>
  <path d="M125.24916,148.79264c0-.44824.09668-1.05225.28906-1.81201l1.75977-7.05615c.06152-.22461.09277-.38574.09277-.48242,0-.22461-.23047-.34033-.68945-.34619-.45898-.00635-.68848-.10205-.68848-.28711,0-.06445.01367-.11523.04199-.15381.02734-.03809.05371-.07178.0791-.10059.02441-.02881.06152-.05273.11133-.07178.0498-.01953.08691-.02881.1123-.02881.02441,0,.06641-.00342.125-.00928.05957-.00635.09473-.00928.10742-.00928.16699-.0127.42188-.03418.7627-.06543.3418-.03076.62402-.05566.84766-.07422.22363-.01904.34766-.02832.37207-.02832.20508,0,.30762.0874.30762.26123,0,.07471-.03223.22119-.0957.43848l-1.28125,5.13428c.70703-.68701,1.37402-1.03027,2-1.03027h.01855c.68359,0,1.23926.2793,1.66699.83838s.6416,1.27051.6416,2.13379c0,1.396-.45801,2.68896-1.37598,3.87988s-1.91406,1.78613-2.98926,1.78613c-.6582,0-1.19141-.27051-1.60156-.8125-.40918-.5415-.61426-1.24316-.61426-2.104ZM126.33803,149.46256c0,.47266.09082.89209.27051,1.25928.17969.3667.47168.5498.875.5498.55859,0,1.09863-.37256,1.62012-1.11816.40918-.58398.75-1.42725,1.02344-2.53027s.40918-1.91553.40918-2.4375c0-.53418-.09277-.94727-.27832-1.23926-.18652-.29199-.4375-.43799-.75488-.43799-.31641,0-.66406.13623-1.04297.40918s-.72559.63916-1.04004,1.09814c-.07422.11133-.1377.22168-.19043.33008-.05176.10889-.08789.20215-.10742.28027s-.06543.26025-.13672.5459-.13281.53418-.18555.74463c-.30762,1.1875-.46191,2.03613-.46191,2.5459Z"/>
  <path class="cls-4" d="M214.03823,131.91764c.44922-1.04688,1.10352-2.09375,1.45801-2.57959l1.55176-.0376.01855.28027c-.13086.1499-.41113.48633-.54199.67334-1.4209,1.98096-2.33594,3.2334-2.33594,3.30811,0,1.36475-.05664,3.36475.99023,3.36475.56055,0,.91602-.33643,1.27148-.729l.29883.29932c-.28027.46729-.99121,1.83154-2.50488,1.83154-.87891,0-1.19629-.67285-1.19629-1.58887,0-.44873.09375-.97168.14941-1.58887h-.14941c-1.10254,1.77588-2.35547,3.23389-3.71973,3.23389-1.5332,0-2.14941-1.30859-2.14941-3.45801,0-3.43945,1.83203-5.75732,4.41113-5.75732,1.81348,0,2.16797,1.70117,2.33691,2.74805h.11133ZM213.2726,133.05778c.01855-.13086.03711-.35547.03711-.6543,0-1.15918-.61719-1.68213-1.81348-1.68213-2.01855,0-3.45801,1.271-3.45801,3.77539,0,1.62646.8418,2.24316,1.70117,2.24316,1.8877,0,3.38379-2.39258,3.5332-3.68213Z"/>
  <path d="M88.82729,38.58024c0-.17383.37012-1.64014,1.11133-4.39746l1.51172-5.5752c.59375-2.17822,1.0791-3.74854,1.45605-4.7124.37793-.96338.89551-1.7959,1.55371-2.49854.80566-.84424,1.66406-1.26611,2.57324-1.26611.69141,0,1.27637.21338,1.75488.63965.47852.42676.71777,1.00244.71777,1.72754,0,.7041-.2334,1.38232-.7002,2.03516s-1.15527,1.17969-2.06348,1.58008c.99805.51562,1.49609,1.43848,1.49316,2.76855-.00391,1.33057-.49414,2.56787-1.4707,3.71143s-2.09473,1.71533-3.35254,1.71533c-.74609,0-1.47656-.16113-2.19043-.4834-.80469,3.125-1.23242,4.73584-1.2832,4.83252-.15137.23828-.36719.35742-.64941.35742-.30859,0-.46191-.14453-.46191-.43457ZM91.59877,32.5153c0,.3042.19043.61621.57324.93604.38281.32031.83203.47998,1.34668.47998.54004,0,1.03418-.21094,1.48145-.63281s.7959-.94727,1.04688-1.5752c.25098-.62842.44629-1.24512.58398-1.85107.13867-.60547.20801-1.14014.20801-1.604,0-.71533-.13574-1.21143-.40527-1.48877-.27051-.27686-.58301-.41553-.93652-.41553-.17383,0-.48438.04346-.93164.13086-.44727.08691-.74414.13037-.89258.13037-.28906,0-.43457-.12793-.43457-.3833,0-.15967.06641-.31104.19824-.45459.13184-.14404.29785-.21582.49707-.21582.07715,0,.3457.03857.80566.11621.45996.07715.77051.11572.93164.11572.63086,0,1.22656-.36035,1.78711-1.08105.55957-.7207.83984-1.50098.83984-2.34033,0-.49951-.12109-.91748-.3623-1.25391s-.60059-.50488-1.07715-.50488c-.87598,0-1.68066.52783-2.41406,1.58301-.30469.43799-.55566.97217-.75293,1.60352s-.35352,1.25146-.46973,1.85986c-.11523.6084-.33594,1.55908-.66211,2.85205s-.63281,2.51123-.9209,3.6543c-.02734.2002-.04004.31348-.04004.33936Z"/>
</svg>