<?xml version="1.0" encoding="UTF-8"?>
<svg id="Layer_1" data-name="Layer 1" xmlns="http://www.w3.org/2000/svg" viewBox="0 0 254.63736 154.15385">
  <defs>
    <style>
      .cls-1 {
        fill: #fc0;
      }

      .cls-2 {
        stroke: #000;
      }

      .cls-2, .cls-3, .cls-4 {
        fill: none;
        stroke-miterlimit: 10;
      }

      .cls-3 {
        stroke: #fc0;
      }

      .cls-4 {
        stroke: #bcbcbc;
        stroke-width: .75px;
      }
    </style>
  </defs>
  <path class="cls-4" d="M213.05851,113.54859c-2.90155.41129-9.09186,1.72708-14.43213,6.71707-10.89789,10.18311-7.84021,25.93478-7.61542,27"/>
  <path class="cls-3" d="M70.50587,38.25019c2.90703,3.11543,7.35355,6.76773,13.49411,8.53197,12.83498,3.68762,27.86728-2.3686,38.4352-15.167"/>
  <line class="cls-2" x1="4.28572" y1="147.26566" x2="119.47252" y2="147.26566"/>
  <line class="cls-2" x1="91.51649" y1="3.66128" x2="250.35164" y2="147.26566"/>
  <line class="cls-2" x1="250.35164" y1="147.26566" x2="137.40659" y2="147.26566"/>
  <path class="cls-2" d="M91.51649,3.66128c-12.26926,20.19836-24.53851,40.39671-36.80777,60.59508"/>
  <line class="cls-2" x1="4.28572" y1="147.26566" x2="43.20642" y2="83.19213"/>
  <path d="M44.85459,75.04069c0-1.61182.54053-3.11719,1.62158-4.51562,1.08057-1.39844,2.23584-2.09766,3.46533-2.09766.84619,0,1.46045.43701,1.84375,1.31104.11572-.57812.41211-.86719.88965-.86719.39746,0,.59619.19141.59619.57471,0,.10156-.02881.25781-.08643.46826l-1.50537,6.03223c-.10156.41309-.15234.79346-.15234,1.14111,0,.60156.18799.90234.56348.90234h.01123c.54834,0,1.04297-.88037,1.4834-2.64062.05762-.23926.10986-.38379.15723-.43457.04688-.05078.13525-.07617.26514-.07617.22363,0,.33594.07227.33594.21631,0,.0293-.02734.15918-.08154.39014s-.13525.52344-.24365.87695c-.10791.354-.22363.65723-.34619.90967-.39746.83057-.93506,1.24561-1.61377,1.24561-.42627,0-.81152-.12939-1.15479-.38721-.34375-.2583-.57324-.646-.68896-1.1626-.84668,1.02637-1.73633,1.54248-2.66895,1.5498-.81787,0-1.4707-.32959-1.9585-.98877-.48877-.65918-.73242-1.4751-.73242-2.44775ZM46.35996,76.01676c0,.49121.08984.94336.27051,1.35498.18066.41211.49805.61816.95312.61816.54834,0,1.12256-.30811,1.72168-.92432.59961-.61621.94971-1.146,1.05078-1.58838l1.03516-4.19189c.04297-.12988.06494-.22754.06494-.29248,0-.51953-.13916-.99561-.4165-1.42871-.27783-.43311-.64746-.64941-1.10938-.64941-.43994,0-.89258.23633-1.35791.70996s-.83838,1.05713-1.11963,1.75098c-.22363.52051-.46191,1.29395-.71436,2.3208-.25244,1.02637-.37842,1.7998-.37842,2.32031Z"/>
  <path d="M125.24912,148.79313c0-.44824.09668-1.05273.28906-1.8125l1.75977-7.05566c.0625-.22461.09277-.38574.09277-.48242,0-.22461-.22949-.34082-.68848-.34668-.45996-.00586-.68945-.10156-.68945-.28711,0-.06445.01367-.11523.04199-.15332s.05371-.07227.0791-.10059c.02539-.0293.0625-.05273.11133-.07227.0498-.01953.08789-.02832.1123-.02832s.06641-.00391.12598-.00977c.05859-.00586.09375-.00879.10645-.00879.16699-.0127.42188-.03418.7627-.06543.3418-.03125.625-.05566.84766-.07422.22363-.01953.34766-.02832.37305-.02832.2041,0,.30664.08691.30664.26074,0,.0752-.03223.22168-.0957.43848l-1.28125,5.13477c.70703-.6875,1.37402-1.03027,2-1.03027h.01953c.68359,0,1.23828.2793,1.66602.83789.42773.55957.64258,1.27051.64258,2.13379,0,1.39648-.45898,2.68945-1.37695,3.87988-.91797,1.19141-1.91406,1.78613-2.98926,1.78613-.65723,0-1.19141-.27051-1.60059-.8125-.41016-.54102-.61523-1.24316-.61523-2.10352ZM126.33896,149.46305c0,.47266.08984.8916.26953,1.25879s.47168.5498.875.5498c.55859,0,1.09863-.37207,1.62012-1.11816.40918-.58398.75098-1.42676,1.02441-2.53027.27246-1.10254.4082-1.91504.4082-2.4375,0-.53418-.0918-.94727-.27832-1.23926s-.4375-.4375-.75488-.4375c-.31641,0-.66406.13574-1.04297.40918-.37891.27246-.72559.63867-1.04004,1.09766-.07422.11133-.1377.22168-.19043.33008-.05176.10938-.08789.20215-.10742.28027s-.06445.26074-.13672.5459c-.07031.28613-.13281.53418-.18555.74512-.30664,1.1875-.46094,2.03613-.46094,2.5459Z"/>
  <path d="M214.03818,131.91813c.44922-1.04688,1.10352-2.09375,1.45898-2.58008l1.55078-.03711.01953.28027c-.13086.14941-.41211.48633-.54297.67285-1.41992,1.98145-2.33594,3.2334-2.33594,3.30859,0,1.36426-.05664,3.36426.99023,3.36426.56055,0,.91602-.33594,1.27148-.72852l.29883.29883c-.28027.46777-.99023,1.83203-2.50488,1.83203-.87793,0-1.19629-.67285-1.19629-1.58887,0-.44922.09375-.97168.15039-1.58887h-.15039c-1.10254,1.77539-2.35547,3.2334-3.71973,3.2334-1.53223,0-2.14941-1.30859-2.14941-3.45801,0-3.43945,1.83203-5.75684,4.41211-5.75684,1.8125,0,2.16797,1.70117,2.33594,2.74805h.11133ZM213.27256,133.05778c.01855-.13086.03711-.35547.03711-.6543,0-1.15918-.61719-1.68164-1.8125-1.68164-2.01953,0-3.45898,1.27051-3.45898,3.77539,0,1.62598.8418,2.24316,1.70117,2.24316,1.88867,0,3.38379-2.39258,3.5332-3.68262Z"/>
  <path class="cls-1" d="M88.82725,38.58024c0-.17383.37012-1.63965,1.11133-4.39746l1.51221-5.5752c.59326-2.17773,1.07861-3.74805,1.45605-4.71191s.89502-1.7959,1.55322-2.49902c.80615-.84375,1.66406-1.26562,2.57373-1.26562.69092,0,1.27588.21289,1.75439.63965.479.42676.71826,1.00195.71826,1.72754,0,.7041-.2334,1.38184-.70068,2.03516-.4668.65234-1.15479,1.17969-2.06348,1.58008.99854.51562,1.49658,1.43848,1.49316,2.76855s-.49365,2.56738-1.47021,3.71094c-.97705,1.14355-2.09473,1.71582-3.35254,1.71582-.74609,0-1.47656-.16113-2.19043-.4834-.80518,3.125-1.23291,4.73535-1.28369,4.83203-.15088.23828-.36719.35742-.64941.35742-.30811,0-.46191-.14453-.46191-.43457ZM91.59873,32.51579c0,.30371.19092.61621.57373.93555.38281.32031.83203.48047,1.34668.48047.54004,0,1.03418-.21094,1.48145-.63281.44678-.42188.7959-.94727,1.04688-1.5752.25098-.62891.4458-1.24512.58398-1.85156.13818-.60547.20752-1.13965.20752-1.60352,0-.71582-.13525-1.21191-.40527-1.48926-.27051-.27637-.58252-.41504-.93604-.41504-.17383,0-.48438.04297-.93164.13086-.44727.08691-.74463.12988-.89258.12988-.28955,0-.43457-.12793-.43457-.38281,0-.16016.06592-.31152.19824-.45508.13184-.14355.29736-.21582.49707-.21582.07715,0,.3457.03906.80566.11621s.77051.11621.93164.11621c.63086,0,1.22607-.36035,1.78662-1.08105.56006-.7207.84033-1.50098.84033-2.34082,0-.49902-.12109-.91699-.3623-1.25391-.2417-.33594-.60107-.50488-1.07764-.50488-.87598,0-1.68066.52832-2.41406,1.58301-.30469.43848-.55566.97266-.75293,1.60352-.19727.63184-.35352,1.25195-.46924,1.86035-.11523.6084-.33594,1.55859-.66211,2.85156s-.6333,2.51172-.92139,3.6543c-.02686.2002-.04004.31348-.04004.33984Z"/>
</svg>