<?xml version="1.0" encoding="UTF-8"?>
<svg id="Layer_1" data-name="Layer 1" xmlns="http://www.w3.org/2000/svg" viewBox="0 0 254.63736 154.15385">
  <defs>
    <style>
      .cls-1 {
        fill: #fc0;
      }

      .cls-2 {
        stroke: #000;
      }

      .cls-2, .cls-3, .cls-4 {
        fill: none;
        stroke-miterlimit: 10;
      }

      .cls-3 {
        stroke: #fc0;
      }

      .cls-4 {
        stroke: #bcbcbc;
        stroke-width: .75px;
      }
    </style>
  </defs>
  <path class="cls-4" d="M213.05851,113.54856c-2.90155.41129-9.09186,1.72708-14.43213,6.71707-10.89789,10.18311-7.84021,25.93478-7.61542,27"/>
  <path class="cls-4" d="M70.50587,38.25016c2.90703,3.11543,7.35355,6.76773,13.49411,8.53197,12.83498,3.68762,27.86728-2.3686,38.4352-15.167"/>
  <line class="cls-2" x1="4.28572" y1="147.26563" x2="119.47252" y2="147.26563"/>
  <line class="cls-2" x1="91.51649" y1="3.66125" x2="250.35164" y2="147.26563"/>
  <line class="cls-2" x1="250.35164" y1="147.26563" x2="137.40659" y2="147.26563"/>
  <path class="cls-3" d="M91.51649,3.66125c-12.26926,20.19836-24.53851,40.39671-36.80777,60.59508"/>
  <line class="cls-3" x1="4.28572" y1="147.26563" x2="43.20642" y2="83.1921"/>
  <path class="cls-1" d="M44.85492,75.0402c0-1.61133.54004-3.11719,1.62109-4.51562s2.23633-2.09766,3.46582-2.09766c.8457,0,1.45996.4375,1.84375,1.31152.11523-.57812.41211-.86719.88965-.86719.39746,0,.5957.19141.5957.57422,0,.10156-.02832.25781-.08594.46875l-1.50586,6.03223c-.10156.41309-.15234.79297-.15234,1.14062,0,.60156.18848.90234.56348.90234h.01172c.54785,0,1.04297-.87988,1.4834-2.64062.05762-.23926.10938-.38379.15723-.43457.04688-.05078.13477-.07617.26465-.07617.22363,0,.33594.07227.33594.2168,0,.0293-.02734.15918-.08105.38965-.05469.23145-.13574.52344-.24414.87695-.10742.35449-.22363.65723-.3457.91016-.39746.83008-.93555,1.24512-1.61426,1.24512-.42578,0-.81152-.12891-1.1543-.38672-.34375-.25879-.57324-.64648-.68945-1.16309-.84668,1.02637-1.73633,1.54297-2.66895,1.5498-.81738,0-1.4707-.3291-1.95801-.98828-.48926-.65918-.73242-1.47559-.73242-2.44824ZM46.3598,76.01676c0,.49121.08984.94336.27051,1.35449.18066.41211.49805.61816.95312.61816.54883,0,1.12305-.30762,1.72168-.92383.59961-.61621.9502-1.14648,1.05078-1.58887l1.03516-4.19141c.04297-.12988.06543-.22754.06543-.29297,0-.51953-.13965-.99512-.41699-1.42871-.27734-.43262-.64746-.64941-1.10938-.64941-.43945,0-.89258.23633-1.35742.70996-.46582.47363-.83887,1.05762-1.12012,1.75098-.22363.52051-.46191,1.29395-.71387,2.32129-.25293,1.02637-.37891,1.7998-.37891,2.32031Z"/>
  <path d="M125.24945,148.79313c0-.44824.09668-1.05273.28906-1.8125l1.75977-7.05566c.06152-.22461.09277-.38574.09277-.48242,0-.22461-.23047-.34082-.68945-.34668s-.68848-.10156-.68848-.28711c0-.06445.01367-.11523.04199-.15332.02734-.03809.05371-.07227.0791-.10059.02441-.0293.06152-.05273.11133-.07227s.08691-.02832.1123-.02832c.02441,0,.06641-.00391.125-.00977.05957-.00586.09473-.00879.10742-.00879.16699-.0127.42188-.03418.7627-.06543.3418-.03125.62402-.05566.84766-.07422.22363-.01953.34766-.02832.37207-.02832.20508,0,.30762.08691.30762.26074,0,.0752-.03223.22168-.0957.43848l-1.28125,5.13477c.70703-.6875,1.37402-1.03027,2-1.03027h.01855c.68359,0,1.23926.2793,1.66699.83789.42773.55957.6416,1.27051.6416,2.13379,0,1.39648-.45801,2.68945-1.37598,3.87988-.91797,1.19141-1.91406,1.78613-2.98926,1.78613-.6582,0-1.19141-.27051-1.60156-.8125-.40918-.54102-.61426-1.24316-.61426-2.10352ZM126.33832,149.46305c0,.47266.09082.8916.27051,1.25879s.47168.5498.875.5498c.55859,0,1.09863-.37207,1.62012-1.11816.40918-.58398.75-1.42676,1.02344-2.53027.27344-1.10254.40918-1.91504.40918-2.4375,0-.53418-.09277-.94727-.27832-1.23926-.18652-.29199-.4375-.4375-.75488-.4375-.31641,0-.66406.13574-1.04297.40918-.37891.27246-.72559.63867-1.04004,1.09766-.07422.11133-.1377.22168-.19043.33008-.05176.10938-.08789.20215-.10742.28027s-.06543.26074-.13672.5459c-.07129.28613-.13281.53418-.18555.74512-.30762,1.1875-.46191,2.03613-.46191,2.5459Z"/>
  <path d="M214.03852,131.91813c.44922-1.04688,1.10352-2.09375,1.45801-2.58008l1.55176-.03711.01855.28027c-.13086.14941-.41113.48633-.54199.67285-1.4209,1.98145-2.33594,3.2334-2.33594,3.30859,0,1.36426-.05664,3.36426.99023,3.36426.56055,0,.91602-.33594,1.27148-.72852l.29883.29883c-.28027.46777-.99121,1.83203-2.50488,1.83203-.87891,0-1.19629-.67285-1.19629-1.58887,0-.44922.09375-.97168.14941-1.58887h-.14941c-1.10254,1.77539-2.35547,3.2334-3.71973,3.2334-1.5332,0-2.14941-1.30859-2.14941-3.45801,0-3.43945,1.83203-5.75684,4.41113-5.75684,1.81348,0,2.16797,1.70117,2.33691,2.74805h.11133ZM213.27289,133.05778c.01855-.13086.03711-.35547.03711-.6543,0-1.15918-.61719-1.68164-1.81348-1.68164-2.01855,0-3.45801,1.27051-3.45801,3.77539,0,1.62598.8418,2.24316,1.70117,2.24316,1.8877,0,3.38379-2.39258,3.5332-3.68262Z"/>
  <path d="M88.82758,38.58024c0-.17383.37012-1.63965,1.11133-4.39746l1.51172-5.5752c.59375-2.17773,1.0791-3.74805,1.45605-4.71191.37793-.96387.89551-1.7959,1.55371-2.49902.80566-.84375,1.66406-1.26562,2.57324-1.26562.69141,0,1.27637.21289,1.75488.63965s.71777,1.00195.71777,1.72754c0,.7041-.2334,1.38184-.7002,2.03516-.4668.65234-1.15527,1.17969-2.06348,1.58008.99805.51562,1.49609,1.43848,1.49316,2.76855-.00391,1.33008-.49414,2.56738-1.4707,3.71094s-2.09473,1.71582-3.35254,1.71582c-.74609,0-1.47656-.16113-2.19043-.4834-.80469,3.125-1.23242,4.73535-1.2832,4.83203-.15137.23828-.36719.35742-.64941.35742-.30859,0-.46191-.14453-.46191-.43457ZM91.59906,32.51579c0,.30371.19043.61621.57324.93555.38281.32031.83203.48047,1.34668.48047.54004,0,1.03418-.21094,1.48145-.63281s.7959-.94727,1.04688-1.5752c.25098-.62891.44629-1.24512.58398-1.85156.13867-.60547.20801-1.13965.20801-1.60352,0-.71582-.13574-1.21191-.40527-1.48926-.27051-.27637-.58301-.41504-.93652-.41504-.17383,0-.48438.04297-.93164.13086-.44727.08691-.74414.12988-.89258.12988-.28906,0-.43457-.12793-.43457-.38281,0-.16016.06641-.31152.19824-.45508s.29785-.21582.49707-.21582c.07715,0,.3457.03906.80566.11621s.77051.11621.93164.11621c.63086,0,1.22656-.36035,1.78711-1.08105.55957-.7207.83984-1.50098.83984-2.34082,0-.49902-.12109-.91699-.3623-1.25391-.24121-.33594-.60059-.50488-1.07715-.50488-.87598,0-1.68066.52832-2.41406,1.58301-.30469.43848-.55566.97266-.75293,1.60352-.19727.63184-.35352,1.25195-.46973,1.86035-.11523.6084-.33594,1.55859-.66211,2.85156s-.63281,2.51172-.9209,3.6543c-.02734.2002-.04004.31348-.04004.33984Z"/>
</svg>